<svg width="267" height="60" viewBox="0 0 267 60" fill="none" xmlns="http://www.w3.org/2000/svg">
<path d="M49.9949 0.00295145C49.9972 0.00164081 50 0.00327329 50 0.00588792C50 0.00776217 49.9985 0.00928155 49.9966 0.00928155C49.9931 0.00928155 49.9919 0.00469055 49.9949 0.00295145Z" fill="#4343FF"/>
<path d="M8.06885 28.9379C5.98247 28.9379 5.28992 26.1438 7.13477 25.1694L24.9949 15.7359C25.5892 15.4221 26.3014 15.4276 26.8907 15.7508L45.974 26.216C46.6143 26.5672 47.0123 27.2394 47.0123 27.9696V47.0303C47.0123 47.7606 46.6143 48.4328 45.974 48.7839L27.5578 58.8833C26.9587 59.2118 26.2334 59.2118 25.6344 58.8833L7.36791 48.8659C6.72761 48.5147 6.3296 47.8425 6.3296 47.1123V35.2143C6.3296 34.1097 7.22503 33.2143 8.3296 33.2143H22.2895C22.3071 33.2143 22.3236 33.2232 22.3333 33.2379L22.364 33.2839L25.765 38.2491C26.6741 39.5764 25.7238 41.3793 24.115 41.3793H22.8453C21.7394 41.3793 20.8435 40.4819 20.8453 39.376L20.8491 37.0414C20.8509 35.9368 19.9569 35.0398 18.8523 35.0381L17.644 35.0361C16.5395 35.0344 15.6426 35.9283 15.6408 37.0329L15.6296 43.9927C15.6265 44.0452 15.625 44.098 15.625 44.1513C15.625 44.2015 15.6265 44.2514 15.6291 44.3009L15.6281 44.9129C15.6262 46.0175 16.5203 46.9144 17.6249 46.9162L18.2279 46.9171C18.2902 46.9212 18.353 46.9234 18.4163 46.9234H32.9971C34.5388 46.9234 35.7885 45.6823 35.7885 44.1513C35.7885 43.8772 35.7483 43.6123 35.6737 43.3622C35.6409 43.2525 35.6107 43.142 35.583 43.031C35.5057 42.7206 35.3726 42.4184 35.1809 42.1386L26.9798 30.1657C26.4817 29.4383 25.6963 29.0205 24.8766 28.9601C24.8708 28.9597 24.8662 28.9549 24.8662 28.949C24.8662 28.9428 24.8612 28.9379 24.8551 28.9379H8.06885Z" fill="#4343FF"/>
<path d="M70.627 42.5293C73.8138 42.5293 75.4072 40.653 75.4072 36.9004C75.4072 33.7064 73.8138 32.1094 70.627 32.1094H67.458V42.5293H70.627ZM64.6113 45V29.6387H70.627C75.7116 29.6387 78.2539 32.0592 78.2539 36.9004C78.2539 42.3001 75.7116 45 70.627 45H64.6113ZM80.6816 45V29.6387H83.5283V35.9766H91.1016V29.6387H93.9482V45H91.1016V38.4473H83.5283V45H80.6816ZM100.028 29.6387V45H97.1816V29.6387H100.028ZM103.262 45V29.6387H110.459C113.381 29.6387 114.842 30.8311 114.842 33.2158C114.842 34.9632 113.889 36.2129 111.984 36.9648C114.018 37.3444 115.035 38.5081 115.035 40.4561C115.035 43.4854 113.435 45 110.233 45H103.262ZM110.115 42.5293C111.376 42.5293 112.006 41.8848 112.006 40.5957C112.006 38.9987 111.064 38.2002 109.181 38.2002H108.321V36.3633C110.685 35.9694 111.866 34.9811 111.866 33.3984C111.866 32.5391 111.336 32.1094 110.276 32.1094H106.108V42.5293H110.115ZM119.042 45H116.12L122.641 29.6387H125.702L132.362 45H129.301L127.55 40.8105H122.447L123.425 38.3398H126.519L124.102 32.5713L119.042 45ZM134.242 44.9785V29.6387H141.225C144.361 29.6387 145.93 31.0101 145.93 33.7529C145.93 35.6077 144.709 37.1439 142.267 38.3613L147.133 45H143.545L138.872 38.3076V37.0078C141.593 36.5423 142.954 35.486 142.954 33.8389C142.954 32.7074 142.317 32.1416 141.042 32.1416H137.143V44.9785H134.242Z" fill="black"/>
<path d="M156.167 29.6387V45H153.32V29.6387H156.167ZM159.132 45V33.7207H161.334L161.688 35.375C162.77 34.2721 164.002 33.7207 165.384 33.7207C168.055 33.7207 169.391 35.11 169.391 37.8887V45H166.544V37.8887C166.544 36.6426 165.924 36.0195 164.686 36.0195C163.762 36.0195 162.859 36.3883 161.979 37.126V45H159.132ZM172.087 45V33.7207C172.087 30.627 173.777 29.0801 177.157 29.0801C178.081 29.0801 178.919 29.2233 179.671 29.5098V31.7656C178.962 31.4792 178.192 31.3359 177.361 31.3359C175.743 31.3359 174.934 32.1309 174.934 33.7207H178.317V35.9766H174.934V45H172.087ZM182.367 39.3174C182.367 41.6735 183.28 42.8516 185.106 42.8516C186.933 42.8516 187.846 41.6735 187.846 39.3174C187.846 37.0186 186.933 35.8691 185.106 35.8691C183.28 35.8691 182.367 37.0186 182.367 39.3174ZM179.521 39.3604C179.521 35.5791 181.382 33.6885 185.106 33.6885C188.83 33.6885 190.692 35.5791 190.692 39.3604C190.692 43.1344 188.83 45.0215 185.106 45.0215C181.397 45.0215 179.535 43.1344 179.521 39.3604ZM203.153 29.6387V32.1094H198.749V45H195.902V32.1094H191.498V29.6387H203.153ZM209.266 33.7207C212.689 33.7207 214.4 35.4681 214.4 38.9629C214.4 39.4284 214.368 39.8939 214.304 40.3594H206.816C206.816 41.9492 207.984 42.7441 210.318 42.7441C211.457 42.7441 212.596 42.6367 213.734 42.4219V44.6777C212.739 44.8926 211.529 45 210.104 45C206.014 45 203.97 43.0771 203.97 39.2314C203.97 35.5576 205.735 33.7207 209.266 33.7207ZM206.816 38.3828H211.629V38.2969C211.629 36.7357 210.841 35.9551 209.266 35.9551C207.762 35.9551 206.945 36.7643 206.816 38.3828ZM224.863 44.6777C223.932 44.8926 222.965 45 221.963 45C217.952 45 215.947 43.0485 215.947 39.1455C215.947 35.529 217.952 33.7207 221.963 33.7207C222.965 33.7207 223.932 33.8281 224.863 34.043V36.2988C223.932 36.084 223.037 35.9766 222.178 35.9766C219.922 35.9766 218.794 37.0329 218.794 39.1455C218.794 41.5446 219.922 42.7441 222.178 42.7441C223.037 42.7441 223.932 42.6367 224.863 42.4219V44.6777ZM226.743 45V29.6387H229.59V35.1602C230.478 34.2005 231.613 33.7207 232.995 33.7207C235.666 33.7207 237.002 35.11 237.002 37.8887V45H234.155V37.8887C234.155 36.6426 233.536 36.0195 232.297 36.0195C231.373 36.0195 230.471 36.3883 229.59 37.126V45H226.743Z" fill="#4343FF"/>
</svg>
